<svg width="50" height="50" viewBox="0 0 50 50" fill="none" xmlns="http://www.w3.org/2000/svg">
<path d="M24.61 49.22C38.2017 49.22 49.22 38.2017 49.22 24.61C49.22 11.0183 38.2017 0 24.61 0C11.0183 0 0 11.0183 0 24.61C0 38.2017 11.0183 49.22 24.61 49.22Z" fill="white"/>
<path d="M16.39 31.4599C20.85 29.3699 28.14 25.5099 28.14 20.6799C28.14 18.9099 26.37 17.5099 24.54 17.5099C23 17.5099 20.91 18.1699 20.91 19.7699C20.91 20.2599 21.25 20.8599 21.94 21.6599L18.97 23.9199C17.74 22.8899 16.94 21.3999 16.94 19.9199C16.94 15.8299 20.2 13.9399 24.6 13.9399C29.37 13.9399 32.2 16.6799 32.2 20.7699C32.2 25.9099 27.91 29.4299 24.11 31.3999H32.83L32.4 35.2899H17.05L16.39 31.4599Z" fill="#305780"/>
</svg>
