<svg width="50" height="50" viewBox="0 0 50 50" fill="none" xmlns="http://www.w3.org/2000/svg">
<path d="M24.61 49.22C38.2017 49.22 49.22 38.2017 49.22 24.61C49.22 11.0183 38.2017 0 24.61 0C11.0183 0 0 11.0183 0 24.61C0 38.2017 11.0183 49.22 24.61 49.22Z" fill="white"/>
<path d="M17.88 17.98V14.03H31.17L31.91 16.12L27.45 21.24C30.65 21.58 33.2 23.78 33.2 27.39C33.2 32.62 28.74 35.2 24.34 35.2C20.28 35.2 16.94 33.06 16.02 30.83L19.74 28.34C20.14 30.08 22.74 31.48 24.23 31.48C26.63 31.48 28.95 29.97 28.95 27.31C28.95 25.57 27.32 24.79 25.66 24.79C24.63 24.79 23.86 25.1 22.97 25.73L20.65 23.39L25.8 17.99H17.88V17.98Z" fill="#305780"/>
</svg>
