<svg width="88" height="63" viewBox="0 0 88 63" fill="none" xmlns="http://www.w3.org/2000/svg">
<path d="M20.8 35.93C19.09 34.97 11.74 34.94 9.85001 35.8V57.3C9.85001 60.44 12.28 62.99 15.28 62.99C18.28 62.99 20.71 60.44 20.71 57.3L20.79 35.93H20.8Z" fill="#2A4D80"/>
<path d="M15.33 48.4799C23.7965 48.4799 30.66 41.6165 30.66 33.1499C30.66 24.6834 23.7965 17.8199 15.33 17.8199C6.86347 17.8199 0 24.6834 0 33.1499C0 41.6165 6.86347 48.4799 15.33 48.4799Z" fill="#A8D7DD"/>
<path d="M79.07 39.56C77.59 38.73 71.22 38.71 69.59 39.44V58.06C69.59 60.78 71.7 62.99 74.3 62.99C76.9 62.99 79 60.79 79.01 58.07L79.08 39.56H79.07Z" fill="#2A4D80"/>
<path d="M74.33 54.37C81.6588 54.37 87.6 48.4288 87.6 41.1C87.6 33.7711 81.6588 27.83 74.33 27.83C67.0012 27.83 61.06 33.7711 61.06 41.1C61.06 48.4288 67.0012 54.37 74.33 54.37Z" fill="#A8D7DD"/>
<path d="M52.2 29.02C50.05 27.82 40.82 27.78 38.45 28.85V55.85C38.45 59.79 41.5 62.99 45.27 62.99C49.04 62.99 52.09 59.79 52.09 55.85L52.19 29.01L52.2 29.02Z" fill="#2A4D80"/>
<path d="M45.33 38.5C55.9615 38.5 64.58 29.8815 64.58 19.25C64.58 8.61852 55.9615 0 45.33 0C34.6985 0 26.08 8.61852 26.08 19.25C26.08 29.8815 34.6985 38.5 45.33 38.5Z" fill="#A8D7DD"/>
</svg>
