<svg width="91" height="67" viewBox="0 0 91 67" fill="none" xmlns="http://www.w3.org/2000/svg">
<path d="M70.21 11.67C72.745 11.67 74.8 9.61498 74.8 7.07999C74.8 4.545 72.745 2.48999 70.21 2.48999C67.675 2.48999 65.62 4.545 65.62 7.07999C65.62 9.61498 67.675 11.67 70.21 11.67Z" fill="#2A4D80"/>
<path d="M70.21 16.63C77.79 16.63 83.96 22.8 83.96 30.38C83.96 37.96 77.79 44.13 70.21 44.13C62.63 44.13 56.46 37.96 56.46 30.38C56.46 22.8 62.63 16.63 70.21 16.63ZM70.21 12.61C60.4 12.61 52.44 20.57 52.44 30.38C52.44 40.19 60.4 48.15 70.21 48.15C80.02 48.15 87.98 40.19 87.98 30.38C87.98 20.57 80.02 12.61 70.21 12.61Z" fill="#A8D7DD"/>
<path d="M88.02 66.1399C86.91 66.1399 86.01 65.2399 86.01 64.1299C86.01 55.4199 78.92 48.3299 70.21 48.3299C61.5 48.3299 54.41 55.4199 54.41 64.1299C54.41 65.2399 53.51 66.1399 52.4 66.1399C51.29 66.1399 50.39 65.2399 50.39 64.1299C50.39 53.1999 59.28 44.3199 70.2 44.3199C81.12 44.3199 90.01 53.2099 90.01 64.1299C90.01 65.2399 89.11 66.1399 88 66.1399H88.02Z" fill="#A8D7DD"/>
<path d="M65.89 32.47C67.0664 32.47 68.02 31.5163 68.02 30.34C68.02 29.1636 67.0664 28.21 65.89 28.21C64.7136 28.21 63.76 29.1636 63.76 30.34C63.76 31.5163 64.7136 32.47 65.89 32.47Z" fill="#2A4D80"/>
<path d="M74.87 32.47C76.0464 32.47 77 31.5163 77 30.34C77 29.1636 76.0464 28.21 74.87 28.21C73.6936 28.21 72.74 29.1636 72.74 30.34C72.74 31.5163 73.6936 32.47 74.87 32.47Z" fill="#2A4D80"/>
<path d="M27.83 11.87C27.32 11.87 26.8 11.67 26.41 11.28L20.81 5.68L15.21 11.28C14.43 12.06 13.15 12.06 12.37 11.28C11.59 10.5 11.59 9.22 12.37 8.44L20.81 0L29.25 8.44C30.03 9.22 30.03 10.5 29.25 11.28C28.86 11.67 28.34 11.87 27.83 11.87Z" fill="#2A4D80"/>
<path d="M20.81 16.63C28.39 16.63 34.56 22.8 34.56 30.38C34.56 37.96 28.39 44.13 20.81 44.13C13.23 44.13 7.06001 37.96 7.06001 30.38C7.06001 22.8 13.23 16.63 20.81 16.63ZM20.81 12.61C11 12.61 3.04001 20.57 3.04001 30.38C3.04001 40.19 11 48.15 20.81 48.15C30.62 48.15 38.58 40.19 38.58 30.38C38.58 20.57 30.62 12.61 20.81 12.61Z" fill="#A8D7DD"/>
<path d="M38.62 66.1399C37.51 66.1399 36.61 65.2399 36.61 64.1299C36.61 55.4199 29.52 48.3299 20.81 48.3299C12.1 48.3299 5.00999 55.4199 5.00999 64.1299C5.00999 65.2399 4.10999 66.1399 2.99999 66.1399C1.88999 66.1399 0.98999 65.2399 0.98999 64.1299C0.98999 53.1999 9.87999 44.3199 20.8 44.3199C31.72 44.3199 40.61 53.2099 40.61 64.1299C40.61 65.2399 39.71 66.1399 38.6 66.1399H38.62Z" fill="#A8D7DD"/>
<path d="M16.49 32.47C17.6664 32.47 18.62 31.5163 18.62 30.34C18.62 29.1636 17.6664 28.21 16.49 28.21C15.3136 28.21 14.36 29.1636 14.36 30.34C14.36 31.5163 15.3136 32.47 16.49 32.47Z" fill="#2A4D80"/>
<path d="M25.47 32.47C26.6464 32.47 27.6 31.5163 27.6 30.34C27.6 29.1636 26.6464 28.21 25.47 28.21C24.2936 28.21 23.34 29.1636 23.34 30.34C23.34 31.5163 24.2936 32.47 25.47 32.47Z" fill="#2A4D80"/>
</svg>
