<svg width="46" height="62" viewBox="0 0 46 62" fill="none" xmlns="http://www.w3.org/2000/svg">
<path d="M22.76 4.62C31.47 4.62 38.56 11.71 38.56 20.42C38.56 29.13 31.47 36.22 22.76 36.22C14.05 36.22 6.96001 29.13 6.96001 20.42C6.96001 11.71 14.05 4.62 22.76 4.62ZM22.76 0C11.49 0 2.35001 9.14 2.35001 20.41C2.35001 31.68 11.49 40.82 22.76 40.82C34.03 40.82 43.17 31.68 43.17 20.41C43.17 9.14 34.03 0 22.76 0Z" fill="#A8D7DD"/>
<path d="M43.22 61.4899C41.95 61.4899 40.91 60.4599 40.91 59.1799C40.91 49.1699 32.77 41.0299 22.76 41.0299C12.75 41.0299 4.62 49.1799 4.62 59.1799C4.62 60.4499 3.59 61.4899 2.31 61.4899C1.03 61.4899 0 60.4599 0 59.1799C0 46.6299 10.21 36.4199 22.76 36.4199C35.31 36.4199 45.52 46.6299 45.52 59.1799C45.52 60.4499 44.49 61.4899 43.21 61.4899H43.22Z" fill="#A8D7DD"/>
<path d="M17.8 22.7999C19.1476 22.7999 20.24 21.7075 20.24 20.3599C20.24 19.0123 19.1476 17.9199 17.8 17.9199C16.4524 17.9199 15.36 19.0123 15.36 20.3599C15.36 21.7075 16.4524 22.7999 17.8 22.7999Z" fill="#2A4D80"/>
<path d="M28.11 22.7999C29.4576 22.7999 30.55 21.7075 30.55 20.3599C30.55 19.0123 29.4576 17.9199 28.11 17.9199C26.7624 17.9199 25.67 19.0123 25.67 20.3599C25.67 21.7075 26.7624 22.7999 28.11 22.7999Z" fill="#2A4D80"/>
</svg>
