<svg width="189" height="84" viewBox="0 0 189 84" fill="none" xmlns="http://www.w3.org/2000/svg">
<path d="M85.06 28.89C85.06 30.22 83.98 31.3 82.65 31.3C72.22 31.3 63.74 39.78 63.74 50.21C63.74 60.64 72.22 69.12 82.65 69.12C83.98 69.12 85.06 70.2 85.06 71.53C85.06 72.86 83.98 73.94 82.65 73.94C69.57 73.94 58.93 63.3 58.93 50.22C58.93 37.14 69.57 26.5 82.65 26.5C83.98 26.5 85.06 27.58 85.06 28.91V28.89Z" fill="#7389A1"/>
<path d="M95.52 28.9002L85.42 39.0002C84.48 39.9402 82.96 39.9402 82.02 39.0002C81.08 38.0602 81.08 36.5402 82.02 35.6002L88.72 28.9002L82.02 22.2002C81.08 21.2602 81.08 19.7402 82.02 18.8002C82.96 17.8602 84.48 17.8602 85.42 18.8002L95.52 28.9002Z" fill="#2A4D80"/>
<path d="M130.73 50.2102C130.73 63.2902 120.09 73.9302 107.01 73.9302C105.68 73.9302 104.6 72.8502 104.6 71.5202C104.6 70.1902 105.68 69.1102 107.01 69.1102C117.44 69.1102 125.92 60.6302 125.92 50.2002C125.92 39.7702 117.44 31.2902 107.01 31.2902C105.68 31.2902 104.6 30.2102 104.6 28.8802C104.6 27.5502 105.68 26.4702 107.01 26.4702C120.09 26.4702 130.73 37.1102 130.73 50.1902V50.2102Z" fill="#7389A1"/>
<path d="M108.35 63.2102C108.35 63.8302 108.12 64.4402 107.65 64.9102L100.95 71.6102L107.65 78.3102C108.59 79.2502 108.59 80.7702 107.65 81.7102C106.71 82.6502 105.19 82.6502 104.25 81.7102L94.15 71.6102L104.25 61.5102C105.19 60.5702 106.71 60.5702 107.65 61.5102C108.12 61.9802 108.35 62.6002 108.35 63.2102Z" fill="#2A4D80"/>
<path d="M163.19 13.0301C166.415 13.0301 169.03 10.4154 169.03 7.1901C169.03 3.96475 166.415 1.3501 163.19 1.3501C159.965 1.3501 157.35 3.96475 157.35 7.1901C157.35 10.4154 159.965 13.0301 163.19 13.0301Z" fill="#2A4D80"/>
<path d="M34.07 15.07C33.42 15.07 32.76 14.82 32.27 14.32L25.16 7.21L18.05 14.32C17.05 15.32 15.44 15.32 14.44 14.32C13.44 13.32 13.44 11.71 14.44 10.71L25.15 0L35.87 10.72C36.87 11.72 36.87 13.33 35.87 14.33C35.37 14.83 34.72 15.08 34.07 15.08V15.07Z" fill="#2A4D80"/>
<path d="M163.19 19.3202C172.82 19.3202 180.65 27.1502 180.65 36.7802C180.65 46.4102 172.82 54.2402 163.19 54.2402C153.56 54.2402 145.73 46.4102 145.73 36.7802C145.73 27.1502 153.56 19.3202 163.19 19.3202ZM163.19 14.2202C150.73 14.2202 140.62 24.3202 140.62 36.7902C140.62 49.2602 150.72 59.3602 163.19 59.3602C175.66 59.3602 185.76 49.2602 185.76 36.7902C185.76 24.3202 175.66 14.2202 163.19 14.2202Z" fill="#7389A1"/>
<path d="M185.8 82.2002C184.39 82.2002 183.25 81.0602 183.25 79.6502C183.25 68.5902 174.25 59.5902 163.19 59.5902C152.13 59.5902 143.13 68.5902 143.13 79.6502C143.13 81.0602 141.99 82.2002 140.58 82.2002C139.17 82.2002 138.03 81.0602 138.03 79.6502C138.03 65.7702 149.32 54.4902 163.19 54.4902C177.06 54.4902 188.35 65.7802 188.35 79.6502C188.35 81.0602 187.21 82.2002 185.8 82.2002Z" fill="#7389A1"/>
<path d="M157.7 39.42C159.191 39.42 160.4 38.2112 160.4 36.72C160.4 35.2289 159.191 34.02 157.7 34.02C156.209 34.02 155 35.2289 155 36.72C155 38.2112 156.209 39.42 157.7 39.42Z" fill="#2A4D80"/>
<path d="M169.1 39.42C170.591 39.42 171.8 38.2112 171.8 36.72C171.8 35.2289 170.591 34.02 169.1 34.02C167.609 34.02 166.4 35.2289 166.4 36.72C166.4 38.2112 167.609 39.42 169.1 39.42Z" fill="#2A4D80"/>
<path d="M25.15 21.12C34.78 21.12 42.61 28.95 42.61 38.58C42.61 48.21 34.78 56.04 25.15 56.04C15.52 56.04 7.69 48.21 7.69 38.58C7.69 28.95 15.52 21.12 25.15 21.12ZM25.15 16.02C12.69 16.02 2.58 26.12 2.58 38.59C2.58 51.06 12.68 61.16 25.15 61.16C37.62 61.16 47.72 51.06 47.72 38.59C47.72 26.12 37.62 16.02 25.15 16.02Z" fill="#7389A1"/>
<path d="M47.77 84C46.36 84 45.22 82.86 45.22 81.45C45.22 70.39 36.22 61.39 25.16 61.39C14.1 61.39 5.1 70.39 5.1 81.45C5.1 82.86 3.96 84 2.55 84C1.14 84 0 82.86 0 81.45C0 67.57 11.29 56.29 25.16 56.29C39.03 56.29 50.32 67.58 50.32 81.45C50.32 82.86 49.18 84 47.77 84Z" fill="#7389A1"/>
<path d="M19.66 41.2301C21.1512 41.2301 22.36 40.0212 22.36 38.5301C22.36 37.0389 21.1512 35.8301 19.66 35.8301C18.1688 35.8301 16.96 37.0389 16.96 38.5301C16.96 40.0212 18.1688 41.2301 19.66 41.2301Z" fill="#2A4D80"/>
<path d="M31.07 41.2301C32.5612 41.2301 33.77 40.0212 33.77 38.5301C33.77 37.0389 32.5612 35.8301 31.07 35.8301C29.5788 35.8301 28.37 37.0389 28.37 38.5301C28.37 40.0212 29.5788 41.2301 31.07 41.2301Z" fill="#2A4D80"/>
</svg>
