<svg width="41" height="55" viewBox="0 0 41 55" fill="none" xmlns="http://www.w3.org/2000/svg">
<path d="M20.94 49.37C17.49 49.37 13.98 48.97 12.46 48.12C11.75 47.72 11.3 46.96 11.31 46.15L11.41 9.66C11.41 4.34 15.6 0 20.75 0C25.9 0 30.09 4.34 30.09 9.67V46.33C30.09 47.22 29.57 48.02 28.76 48.38C27.34 49.02 24.17 49.37 20.94 49.37ZM15.82 44.51C18.2 44.94 23.03 44.97 25.58 44.59V9.67C25.58 6.83 23.41 4.51 20.75 4.51C18.09 4.51 15.92 6.82 15.92 9.67L15.82 44.52V44.51Z" fill="#305780"/>
<path d="M20.69 54.99C31.7246 54.99 40.67 46.0447 40.67 35.01C40.67 23.9754 31.7246 15.03 20.69 15.03C9.65535 15.03 0.709991 23.9754 0.709991 35.01C0.709991 46.0447 9.65535 54.99 20.69 54.99Z" fill="white"/>
<path d="M25.85 35.01C25.85 37.21 24.47 39.1 22.52 39.83V43.42C22.52 44.48 21.69 45.33 20.68 45.33C19.67 45.33 18.85 44.48 18.85 43.42V39.82C16.91 39.09 15.54 37.21 15.54 35.01C15.54 32.16 17.84 29.86 20.69 29.86C23.54 29.86 25.85 32.16 25.85 35.01Z" fill="#DDDDDD"/>
</svg>
