<svg width="50" height="21" viewBox="0 0 50 21" fill="none" xmlns="http://www.w3.org/2000/svg">
<path d="M36.8131 12.6459H1.95847C0.872131 12.6459 0 11.7738 0 10.6875C0 9.60114 0.872131 8.729 1.95847 8.729H36.8284C37.9148 8.729 38.7869 9.60114 38.7869 10.6875C38.7869 11.7738 37.9148 12.6459 36.8284 12.6459H36.8131Z" fill="#A8D7DD"/>
<path d="M38.741 21C38.2361 21 37.7464 20.8164 37.3639 20.4339C36.5989 19.6689 36.5989 18.4295 37.3639 17.6645L44.5246 10.5038L37.3639 3.34317C36.5989 2.57814 36.5989 1.3388 37.3639 0.57377C38.129 -0.191257 39.3683 -0.191257 40.1333 0.57377L48.671 9.11147C49.4361 9.8765 49.4361 11.1158 48.671 11.8809L40.1333 20.4186C39.7508 20.8011 39.2459 20.9847 38.7563 20.9847L38.741 21Z" fill="#305789"/>
</svg>
