<svg width="72" height="65" viewBox="0 0 72 65" fill="none" xmlns="http://www.w3.org/2000/svg">
<path d="M26.13 10.7948C26.13 12.1248 25.05 13.2048 23.72 13.2048C13.29 13.2048 4.81 21.6848 4.81 32.1148C4.81 42.5448 13.29 51.0248 23.72 51.0248C25.05 51.0248 26.13 52.1048 26.13 53.4348C26.13 54.7648 25.05 55.8448 23.72 55.8448C10.64 55.8448 0 45.2048 0 32.1248C0 19.0448 10.64 8.40479 23.72 8.40479C25.05 8.40479 26.13 9.48478 26.13 10.8148V10.7948Z" fill="#A8D7DD"/>
<path d="M36.5898 10.805L26.4898 20.905C25.5498 21.845 24.0298 21.845 23.0898 20.905C22.1498 19.965 22.1498 18.445 23.0898 17.505L29.7898 10.805L23.0898 4.105C22.1498 3.165 22.1498 1.645 23.0898 0.705C24.0298 -0.235 25.5498 -0.235 26.4898 0.705L36.5898 10.805Z" fill="#2A4D80"/>
<path d="M71.7999 32.115C71.7999 45.195 61.1599 55.835 48.0799 55.835C46.7499 55.835 45.6699 54.755 45.6699 53.425C45.6699 52.095 46.7499 51.015 48.0799 51.015C58.5099 51.015 66.9899 42.535 66.9899 32.105C66.9899 21.675 58.5099 13.195 48.0799 13.195C46.7499 13.195 45.6699 12.115 45.6699 10.785C45.6699 9.455 46.7499 8.375 48.0799 8.375C61.1599 8.375 71.7999 19.015 71.7999 32.095V32.115Z" fill="#A8D7DD"/>
<path d="M49.4207 45.115C49.4207 45.735 49.1907 46.345 48.7207 46.815L42.0207 53.515L48.7207 60.215C49.6607 61.155 49.6607 62.675 48.7207 63.615C47.7807 64.555 46.2607 64.555 45.3207 63.615L35.2207 53.515L45.3207 43.415C46.2607 42.475 47.7807 42.475 48.7207 43.415C49.1907 43.885 49.4207 44.505 49.4207 45.115Z" fill="#2A4D80"/>
</svg>
