<svg width="45" height="20" viewBox="0 0 45 20" fill="none" xmlns="http://www.w3.org/2000/svg">
<path d="M11.3509 7.63404L43.2147 7.63404C44.2002 7.63404 45 8.43385 45 9.41933C45 10.4048 44.2002 11.2046 43.2147 11.2046L11.3509 11.2046C10.3654 11.2046 9.56559 10.4048 9.56559 9.41933C9.56559 8.43385 10.3654 7.63404 11.3509 7.63404Z" fill="#A8D7DD"/>
<path d="M9.59395 7.47301e-06C10.051 7.51296e-06 10.508 0.171396 10.8579 0.521313C11.5578 1.22115 11.5578 2.34945 10.8579 3.04928L4.31664 9.59058L10.8579 16.1319C11.5578 16.8317 11.5578 17.96 10.8579 18.6598C10.1581 19.3597 9.0298 19.3597 8.32997 18.6598L0.524688 10.8546C-0.175145 10.1547 -0.175145 9.02643 0.524689 8.32659L8.32997 0.521312C8.67989 0.171396 9.13692 7.43305e-06 9.59395 7.47301e-06Z" fill="#305780"/>
</svg>

