<?xml version="1.0" encoding="UTF-8"?>
<svg id="Calque_1" data-name="Calque 1" xmlns="http://www.w3.org/2000/svg" viewBox="0 0 223.27 344.44">
  <defs>
    <style>
      .cls-1 {
        fill: #fff;
      }

      .cls-2 {
        fill: #a8d7dd;
        opacity: .8;
      }
    </style>
  </defs>
  <g>
    <path class="cls-1" d="M122.52,94.9l-18.42,18.42c-.92.92-2.42.92-3.35,0s-.92-2.42,0-3.35l18.42-18.42c.92-.92,2.42-.92,3.35,0s.92,2.42,0,3.35Z"/>
    <path class="cls-1" d="M104.1,91.55l18.42,18.42c.92.92.92,2.42,0,3.35s-2.42.92-3.35,0l-18.42-18.42c-.92-.92-.92-2.42,0-3.35.92-.92,2.42-.92,3.35,0Z"/>
  </g>
  <g>
    <path class="cls-2" d="M214.05,34.82c.56-1.01.86-2.01.86-3.01,0-1.17-.28-2.31-.78-3.42h-24.43s.01.02.01.02h-85.01s.01-.02.02-.02h-23.44c-1.85,0-3.34,1.43-3.34,3.19s1.5,3.19,3.34,3.19l132.77.05Z"/>
    <g>
      <path class="cls-1" d="M0,15.39l4.14-.92c1.38,1.18,2.37,3.55,3.16,4.74,1.51-2.3,4.87-5.06,10.72-5.06s9.54,3.09,10.92,5.92c1.12-2.83,6.45-5.92,12.56-5.92,7.63,0,13.68,5.13,13.68,14.53v20.72h-8.75v-19.6c0-4.27-3.09-7.17-7.17-7.17-2.3,0-5.99,1.38-7.1,3.68v23.09h-8.75v-19.6c0-4.27-2.76-7.17-6.77-7.17-3.42,0-7.76,2.3-7.76,4.8v21.97H0V15.39Z"/>
      <path class="cls-1" d="M79.58,41.17c4.87,0,9.14-4.21,9.14-9.14s-4.27-9.01-9.14-9.01-8.94,4.21-8.94,9.01,4.08,9.14,8.94,9.14M79.58,14.14c10.13,0,18.15,7.89,18.15,17.89s-8.02,17.96-18.15,17.96-17.96-7.83-17.96-17.96,7.7-17.89,17.96-17.89"/>
      <path class="cls-1" d="M104.11,49.39V15.39l4.21-.92c1.38,1.12,2.63,3.09,3.22,4.74,2.3-2.7,5.26-5.06,11.44-5.06,7.83,0,15.39,5.26,15.39,14.54v20.72h-9.08v-19.6c0-4.14-3.55-7.17-7.56-7.17-3.22,0-8.48,2.3-8.48,4.8v21.97h-9.14Z"/>
      <path class="cls-1" d="M154.09,28.41h15.46c-.59-4.01-4.08-6.12-7.56-6.12s-7.1,2.37-7.89,6.12M177.9,29.6c0,4.54-3.09,5.26-6.71,5.26h-17.23c.66,4.28,3.88,6.71,8.16,6.71,4.01,0,6.38-1.45,8.02-3.49l6.97,3.55c-3.62,6.25-8.29,8.35-15.39,8.35-9.4,0-16.97-7.83-16.97-18.28s6.91-17.56,16.97-17.56c9.08,0,16.18,5.59,16.18,15.46"/>
      <rect class="cls-1" x="184.34" width="9.27" height="49.39"/>
      <path class="cls-1" d="M223.27,31.64c0,4.97-4.03,9-9,9s-9-4.03-9-9,4.03-9,9-9,9,4.03,9,9"/>
    </g>
  </g>
  <g>
    <path class="cls-1" d="M106.52,158.58c.16.26.6.16.86.16,1.24.01,2.67.12,3.86-.16h2.2l43.59,120.7h-8.97l-3.72-10.05-23.71-.03-7.16,19.64,19.96,55.59h-8.97l-3.72-10.05-23.59-.04-3.93,10.08h-8.73l43.52-120.63-7.27-19.89h-23.56s-3.96,10.21-3.96,10.21h-8.73l19.99-55.55h2.05ZM118.17,196.35l-9.21-25.5-9.21,25.5h18.41ZM141.62,261.5l-8.97-25.34-9.28,25.34h18.26ZM118.01,326.65l-9.05-25.34-9.21,25.34h18.26Z"/>
    <path class="cls-1" d="M67.02,158.58c10.15,1.98,15.76,12.36,12.08,22.07-.81,2.15-2.03,3.67-3.89,5,3.09,1.45,5.15,4.7,5.97,7.96,2.5,9.92-3.73,19.93-14.22,20.53h-22.59s0-55.56,0-55.56h22.66ZM52.7,183.6c.12.04.19-.16.24-.16h13.22c.29,0,1.75-.71,2.08-.91,4.98-3.02,4.74-12.34-.57-14.91-.47-.23-1.83-.7-2.29-.7h-12.67v16.68ZM52.7,205.63h15.03c.3,0,1.83-.76,2.18-.97,4.53-2.85,4.6-10.71.06-13.54-.41-.25-2.17-1.07-2.55-1.07h-14.71v15.58Z"/>
    <path class="cls-1" d="M157.36,158.58c2.88.79,4.18,3.24,3.93,6.14h-3.46c-.04-.72.11-1.45-.12-2.16-.61-1.82-4.09-1.14-3.14,1.73.6,1.8,4.05,3.49,5.39,5.15,3.91,4.86-.51,11.04-6.37,8.73-1.18-.46-2.83-2.15-2.83-3.46v-2.44h3.3c-.06,1.51-.11,3.23,1.81,3.31,1.06.04,1.85-.38,1.97-1.5.33-2.95-3.43-4.38-5.12-6.22-3.05-3.32-2.26-8.12,2.28-9.29h2.36Z"/>
    <path class="cls-1" d="M177.03,344.44h-8.97l-7.55-21.09h-11.96v21.09h-8.5v-55.32l.54-.24c6.67.32,13.69-.39,20.32,0,15.93.95,19.82,22.86,7.85,31.63l-.22.4,8.49,23.53ZM148.54,314.85h13.14c.73,0,2.86-1.68,3.38-2.29,3.63-4.26,3.22-11.9-2.19-14.48-2.66-1.27-8.37-.67-11.41-.54-.97.04-1.95-.04-2.92,0v17.31Z"/>
    <polygon class="cls-1" points="98.81 223.73 81.82 270.79 100.78 270.79 101.02 271.02 101.02 279.05 100.78 279.28 69.7 279.28 86.7 232.07 70.17 232.07 70.17 223.73 98.81 223.73"/>
    <path class="cls-1" d="M168.49,194.03c3.14-.37,6.05,1.25,6.34,4.59.24,2.74.25,8.15,0,10.87-.56,6.1-10.34,6.16-10.87,0-.32-3.67.19-7.86.08-11.58.5-2.16,2.28-3.62,4.46-3.88ZM170.68,210.46c.27-.25.48-.91.52-1.29.37-3.26-.27-7.2-.01-10.53-.44-1.99-3.17-2.01-3.6,0,.3,3.31-.45,7.48,0,10.68.21,1.52,2.09,2.06,3.09,1.14Z"/>
    <path class="cls-1" d="M150.75,207.68h3.07c.44.4.17,1.1.24,1.65.3,2.49,4.26,2.34,3.77-.78-.47-2.94-6.36-4.44-6.9-8.52-.93-7.05,8.89-8.13,10.18-2.31.15.69.39,2.03-.04,2.56h-2.99c-.5-.57-.08-1.47-.31-2.21-.5-1.62-3.49-1.4-3.38.85.14,2.91,5.87,4.45,6.84,8.44,1.22,5-3.76,8.29-8.12,6.07-.88-.45-2.35-2.18-2.35-3.16v-2.6Z"/>
    <polygon class="cls-1" points="174.82 158.89 174.82 162.2 171.36 162.2 171.36 178.02 171.13 178.25 167.82 178.25 167.59 178.02 167.59 162.2 164.12 162.2 164.12 158.89 174.82 158.89"/>
    <rect class="cls-1" x="150.75" y="184.7" width="24.08" height="3.3"/>
  </g>
</svg>