<?xml version="1.0" encoding="utf-8"?>
<!-- Generator: $$$/GeneralStr/196=Adobe Illustrator 27.6.0, SVG Export Plug-In . SVG Version: 6.00 Build 0)  -->
<svg version="1.1"
	 id="Calque_1" xmlns:svg="http://www.w3.org/2000/svg" xmlns:sodipodi="http://sodipodi.sourceforge.net/DTD/sodipodi-0.dtd" xmlns:inkscape="http://www.inkscape.org/namespaces/inkscape"
	 xmlns="http://www.w3.org/2000/svg" xmlns:xlink="http://www.w3.org/1999/xlink" x="0px" y="0px" viewBox="0 0 991.2 154.7"
	 style="enable-background:new 0 0 991.2 154.7;" xml:space="preserve">
<style type="text/css">
	.st0{fill:#FFFFFF;}
	.st1{fill:url(#path56_00000078034564021008966980000008214399419276410016_);}
	.st2{fill:#FFB200;}
	.st3{fill:url(#path102_00000088117992769833305810000017427499173376511676_);}
</style>
<g>
	
		<sodipodi:namedview  bordercolor="#000000" borderopacity="0.25" id="namedview4" inkscape:deskcolor="#d1d1d1" inkscape:pagecheckerboard="0" inkscape:pageopacity="0.0" inkscape:showpageshadow="2" pagecolor="#ffffff">
		</sodipodi:namedview>
	<path id="path12" class="st0" d="M125.4,94.9v10.4H82v-56h42.3v10.4H94.9v12.2h26V82h-26v13H125.4z"/>
	<path id="path24" class="st0" d="M136.1,80.2V48.9h13v30.9c0,10.6,4.6,15,12.5,15c7.9,0,12.5-4.4,12.5-15V48.9h12.8v31.4
		c0,16.5-9.4,25.6-25.3,25.6S136.1,96.7,136.1,80.2"/>
	<path id="path28" class="st0" d="M223,59.9h-10.6v19.5H223c7.9,0,11.9-3.7,11.9-9.8C234.9,63.5,230.9,59.9,223,59.9 M235.1,105.3
		l-10.8-15.6h-0.6h-11.3v15.6h-13v-56h24.2c15,0,24.3,7.8,24.3,20.3c0,8.4-4.2,14.6-11.5,17.7l12.6,18H235.1z"/>
	<path id="path32" class="st0" d="M285.5,61.9l-18,43.3h-13.3l24.9-56h12.8l25,56h-13.6L285.5,61.9z"/>
	<path id="path36" class="st0" d="M937.2,99.6v5h-38.6V50.1h37.4v5h-31.6v19.4h28.2v4.9h-28.2v20.3H937.2z"/>
	
		<linearGradient id="path56_00000168807599745675925030000013576164533695729040_" gradientUnits="userSpaceOnUse" x1="-144.4388" y1="433.5923" x2="-143.4388" y2="433.5923" gradientTransform="matrix(48.2345 -48.2345 -48.2345 -48.2345 27894.0332 14042.6113)">
		<stop  offset="0" style="stop-color:#FFB200"/>
		<stop  offset="1" style="stop-color:#F80000"/>
	</linearGradient>
	<path id="path56" style="fill:url(#path56_00000168807599745675925030000013576164533695729040_);" d="M2.2,48.4v19.3h19.3V87h19.3
		v19.3h19.3V48.4H2.2z"/>
	<path id="path66" class="st2" d="M2.2,106.3h19.3V87H2.2V106.3z"/>
	<path id="path70" class="st0" d="M315.8,60.1h16.7v45.5h8.8h4.1V60.1h17.9V49.6h-47.5V60.1z"/>
	<path id="path74" class="st0" d="M387,82h25.9v-10H387V59.8h29.3V49.4h-42.2v55.8h43.2V94.9H387V82z"/>
	<path id="path78" class="st0" d="M458.9,59.5c5.6,0,10.3,2.2,14,6.5l8.3-7.7c-5.3-6.4-13.3-9.9-23-9.9c-17.4,0-30.3,12-30.3,28.9
		s12.9,28.9,30.2,28.9c9.7,0,17.8-3.5,23-10l-8.3-7.7c-3.7,4.4-8.4,6.6-14,6.6c-10.4,0-17.9-7.3-17.9-17.9S448.5,59.5,458.9,59.5"/>
	<path id="path82" class="st0" d="M532.1,49.4v22h-25.3v-22h-12.9v55.8h12.9V82.4h25.3v22.9h12.9V49.4H532.1z"/>
	
		<linearGradient id="path102_00000069384144868455290540000010550972956974856619_" gradientUnits="userSpaceOnUse" x1="-143.3882" y1="434.9073" x2="-142.3882" y2="434.9073" gradientTransform="matrix(84.0451 -56.854 -56.854 -84.0451 37024.918 28527.6172)">
		<stop  offset="0" style="stop-color:#FFD400"/>
		<stop  offset="1" style="stop-color:#FF2061"/>
	</linearGradient>
	<path id="path102" style="fill:url(#path102_00000069384144868455290540000010550972956974856619_);" d="M281.8,102.3
		c0,2.1,1.7,3.8,3.8,3.8l0,0c2.1,0,3.8-1.7,3.8-3.8l0,0c0-2.1-1.7-3.8-3.8-3.8l0,0C283.5,98.5,281.8,100.2,281.8,102.3"/>
	<path id="path114" class="st0" d="M613,49.4v55.8h-6.3l-36.2-50l0.1-0.1l-0.1,0v0.1l0.1,50h-5.6V49.4h8.8l33.7,47.2V49.4H613z"/>
	<path id="path118" class="st0" d="M655,48.5c-15.9,0-28.9,12.9-28.9,28.9s12.9,28.9,28.9,28.9c15.9,0,28.9-12.9,28.9-28.9
		S670.9,48.5,655,48.5 M655,54.2c12.8,0,23.1,10.4,23.1,23.1s-10.4,23.1-23.1,23.1c-12.8,0-23.1-10.4-23.1-23.1S642.2,54.2,655,54.2
		"/>
	<path id="path122" class="st0" d="M766.9,48.5c-15.9,0-28.9,12.9-28.9,28.9s12.9,28.9,28.9,28.9c15.9,0,28.9-12.9,28.9-28.9
		S782.8,48.5,766.9,48.5 M766.9,54.2c12.8,0,23.1,10.4,23.1,23.1s-10.4,23.1-23.1,23.1s-23.1-10.4-23.1-23.1S754.1,54.2,766.9,54.2"
		/>
	<path id="path126" class="st0" d="M732.5,106.1h-37.6l0-54.8h5.5l0,49.4h32.2V106.1z"/>
	<path id="path130" class="st0" d="M874,104.7l0-54.7h5.5l0,54.7H874z"/>
	<path id="path134" class="st0" d="M844.8,104.9h-17.8c-10.8,0-19.6-8.8-19.6-19.6V72.4c0-12.5,10.1-22.6,22.6-22.6h22.9v5.5H830
		c-9.5,0-17.2,7.7-17.2,17.2v12.9c0,7.8,6.3,14.1,14.1,14.1h17.8c2.3,0,4.1-1.9,4.1-4.1V84h-14.1v-5.5h19.5v16.8
		C854.4,100.6,850.1,104.9,844.8,104.9"/>
	<path id="path138" class="st0" d="M947.9,97.6l2.4-4.1c4.1,3.5,11.4,6.5,19.3,6.5c11.3,0,15.8-4,15.8-10.1
		c0-15.6-35.5-4.1-35.5-25.1c0-8.1,6.8-14.7,20.3-14.7c6.8,0,14.2,2.1,18.4,5.2l-2.4,4.1c-4.5-3.3-10.4-4.8-16.1-4.8
		c-10.5,0-15.1,4.3-15.1,10.1c0,16.1,35.5,4.7,35.5,25.1c0,8.7-7.5,14.7-21.1,14.7C960.5,104.5,952.1,101.5,947.9,97.6"/>
</g>
</svg>
