<svg width="394" height="126" viewBox="0 0 394 126" fill="none" xmlns="http://www.w3.org/2000/svg">
<path d="M377.27 61.37C378.26 59.6 378.79 57.83 378.79 56.06C378.79 53.99 378.29 51.99 377.41 50.04H334.35C334.35 50.04 334.37 50.07 334.38 50.08H184.55C184.55 50.08 184.57 50.05 184.58 50.04H143.27C140.02 50.04 137.38 52.56 137.38 55.67C137.38 58.78 140.02 61.3 143.27 61.3L377.27 61.38V61.37Z" fill="#A8D7DD"/>
<path d="M0 27.13L7.3 25.51C9.73 27.6 11.47 31.77 12.86 33.86C15.53 29.8 21.44 24.93 31.76 24.93C42.08 24.93 48.57 30.38 51 35.36C52.97 30.38 62.36 24.93 73.14 24.93C86.59 24.93 97.25 33.97 97.25 50.55V87.07H81.83V52.53C81.83 45 76.38 39.9 69.19 39.9C65.13 39.9 58.64 42.33 56.67 46.39V87.08H41.25V52.54C41.25 45.01 36.38 39.91 29.31 39.91C23.28 39.91 15.63 43.97 15.63 48.37V87.09H0V27.13Z" fill="#305789"/>
<path d="M140.26 72.57C148.84 72.57 156.37 65.15 156.37 56.46C156.37 47.77 148.84 40.58 140.26 40.58C131.68 40.58 124.5 48 124.5 56.46C124.5 64.92 131.69 72.57 140.26 72.57ZM140.26 24.93C158.11 24.93 172.25 38.84 172.25 56.46C172.25 74.08 158.11 88.11 140.26 88.11C122.41 88.11 108.61 74.32 108.61 56.46C108.61 38.6 122.17 24.93 140.26 24.93Z" fill="#305789"/>
<path d="M183.49 87.06V27.13L190.91 25.51C193.34 27.48 195.55 30.96 196.59 33.86C200.65 29.11 205.86 24.93 216.76 24.93C230.55 24.93 243.89 34.2 243.89 50.55V87.06H227.89V52.52C227.89 45.22 221.63 39.89 214.56 39.89C208.88 39.89 199.61 43.95 199.61 48.35V87.07H183.5L183.49 87.06Z" fill="#305789"/>
<path d="M271.59 50.08H298.83C297.79 43.01 291.64 39.3 285.5 39.3C279.36 39.3 272.98 43.47 271.59 50.08ZM313.55 52.17C313.55 60.17 308.1 61.44 301.73 61.44H271.36C272.52 68.98 278.2 73.26 285.73 73.26C292.8 73.26 296.97 70.71 299.87 67.12L312.16 73.38C305.78 84.39 297.55 88.1 285.03 88.1C268.45 88.1 255.12 74.31 255.12 55.87C255.12 37.43 267.29 24.92 285.03 24.92C301.03 24.92 313.55 34.77 313.55 52.16" fill="#305789"/>
<path d="M341.26 0H324.91V87.06H341.26V0Z" fill="#305789"/>
<path d="M393.52 55.76C393.52 64.52 386.41 71.63 377.65 71.63C368.89 71.63 361.78 64.52 361.78 55.76C361.78 47 368.89 39.89 377.65 39.89C386.41 39.89 393.52 47 393.52 55.76Z" fill="#305789"/>
<path d="M9.79995 111.4C9.79995 110.21 9.12995 109.57 7.41995 109.57C6.10995 109.57 5.18995 110.41 4.61995 111.18L2.50995 109.12C2.87995 108.05 4.86995 106.52 7.39995 106.52C11.1699 106.52 13.1499 107.96 13.1499 112.22V116.76C13.1499 117.38 13.7499 117.93 14.6399 117.93L14.1399 120.01C12.5299 120.01 11.4099 119.34 11.0199 118.52C10.3999 119.36 9.22995 120.11 7.04995 120.11C3.30995 120.11 1.81995 118.4 1.81995 115.89C1.81995 111.2 8.33995 112.12 9.80995 111.4H9.79995ZM9.79995 115.71V113.85C7.91995 114.3 5.28995 113.8 5.28995 115.88C5.28995 116.45 5.65995 117.02 7.31995 117.02C8.38995 117.02 9.37995 116.7 9.79995 115.71Z" fill="#305789"/>
<path d="M30.6199 106.81V119.63L29.0299 120C28.5099 119.58 28.0099 118.81 27.8399 118.19C27.0699 119.33 25.7799 120.1 23.3799 120.1C20.5299 120.1 17.8999 118.12 17.8999 114.64V106.8H21.2999V114.17C21.2999 115.78 22.5399 116.9 24.0499 116.9C25.2699 116.9 27.1699 115.96 27.1699 115.09V106.81H30.6199Z" fill="#305789"/>
<path d="M51.65 116.88C53.21 116.88 54.48 115.66 54.68 114.33L57.8 114.98C57.23 118.1 54.25 120.06 51.38 120.06C47.46 120.06 44.83 117.21 44.83 113.41C44.83 109.22 47.24 106.54 51.62 106.54C54.94 106.54 57.22 108.75 57.65 111.35L54.65 112.52C54.53 110.88 53.39 109.74 51.53 109.74C49.37 109.74 48.33 111.25 48.33 113.21C48.33 115.17 49.59 116.88 51.65 116.88Z" fill="#305789"/>
<path d="M83.2599 112.37C83.2599 114.08 82.0899 114.35 80.7099 114.35H74.1099C74.5599 115.71 75.8699 116.88 77.1899 116.88C78.3799 116.88 79.6899 116.51 80.3399 115.24L82.7699 116.83C81.4799 118.76 80.1199 120.05 77.0199 120.05C74.4899 120.05 72.5799 118.34 72.3599 117.4C72.1599 118.34 69.9499 120.05 67.1799 120.05C63.3099 120.05 60.4099 117.1 60.4099 113.28C60.4099 109.46 63.2899 106.54 67.2499 106.54C70.3299 106.54 72.0099 108.4 72.2299 109.09C72.5299 108.37 73.8899 106.54 77.3099 106.54C80.7299 106.54 83.2599 109.02 83.2599 112.37ZM67.1699 116.81C69.0299 116.81 70.6899 115.15 70.6899 113.29C70.6899 111.43 69.0299 109.72 67.1699 109.72C65.3099 109.72 63.7199 111.43 63.7199 113.29C63.7199 115.15 65.2299 116.81 67.1699 116.81ZM74.2599 111.92H79.9899C79.6899 110.63 78.4799 109.79 77.1599 109.79C75.8399 109.79 74.3799 110.61 74.2599 111.92Z" fill="#305789"/>
<path d="M99.6299 106.81V119.63L98.0399 120C97.5199 119.58 97.0199 118.81 96.8499 118.19C96.0799 119.33 94.7899 120.1 92.3899 120.1C89.5399 120.1 86.9099 118.12 86.9099 114.64V106.8H90.3099V114.17C90.3099 115.78 91.5499 116.9 93.0599 116.9C94.2799 116.9 96.1799 115.96 96.1799 115.09V106.81H99.6299Z" fill="#305789"/>
<path d="M104.24 119.83V106.98L106.5 106.63L107.05 108.76C107.67 107.64 108.86 106.7 110.62 106.7C111.81 106.7 112.95 106.8 113.69 107.52L113.24 110.87C112.12 110.23 111.45 110.08 110.83 110.08C109.14 110.08 107.66 111.29 107.66 112.83V119.82H104.24V119.83Z" fill="#305789"/>
<path d="M126.4 113.26C126.4 108.72 129.43 106.94 132.13 106.94C133.39 106.94 134.41 107.11 135.53 108.16V101.24H137.96V118.2L138.26 119.74L137.47 119.96C136.85 119.79 136.4 119.41 136.06 118.84C134.55 119.83 133.78 120.08 132.27 120.08C129.02 120.08 126.42 117.3 126.42 113.26H126.4ZM135.65 116.04V111.15C135.45 109.61 133.49 108.92 132.53 108.92C130.4 108.92 128.69 110.51 128.69 113.41C128.69 116.14 129.9 117.97 132.53 117.97C133.22 117.97 135.46 117.3 135.65 116.04Z" fill="#305789"/>
<path d="M153.66 111.25C153.73 111.55 153.83 112.07 153.83 112.52C153.83 113.83 152.89 114.23 151.77 114.23H143.91C144.03 116.46 146.07 118.02 148 118.02C149.51 118.02 150.88 117.25 151.5 116.11L153.21 117.18C152.12 118.82 150.56 120.08 147.93 120.08C144.56 120.08 141.75 117.2 141.75 113.34C141.75 109.67 144.28 106.94 147.93 106.94C150.96 106.94 152.91 108.7 153.66 111.25ZM143.99 112.39H151.75C151.45 110.53 149.99 108.97 147.93 108.97C145.87 108.97 144.21 110.46 143.99 112.39Z" fill="#305789"/>
<path d="M173.27 117.37L177.24 107.23H179.62L174.71 119.83H171.78L166.65 107.23H169.33L173.27 117.37Z" fill="#305789"/>
<path d="M188.09 106.93C191.81 106.93 194.76 109.83 194.76 113.5C194.76 117.17 191.81 120.07 188.09 120.07C184.37 120.07 181.52 117.19 181.52 113.5C181.52 109.81 184.35 106.93 188.09 106.93ZM188.09 117.84C190.45 117.84 192.45 115.88 192.45 113.5C192.45 111.12 190.44 109.19 188.09 109.19C185.74 109.19 183.8 111.2 183.8 113.5C183.8 115.8 185.73 117.84 188.09 117.84Z" fill="#305789"/>
<path d="M208.65 109.19L206.79 110.5C206.42 109.81 205.62 108.89 203.19 108.89C201.8 108.89 200.49 109.49 200.49 110.53C200.49 113.28 209.12 111.3 209.12 116.16C209.12 119.28 205.9 120.1 203.39 120.1C200.49 120.1 198.28 119.03 197.46 117.42L199.44 116.3C199.96 117.12 201.1 118.11 203.28 118.11C204.99 118.11 206.95 117.32 206.95 116.13C206.95 114.49 203.55 114.59 201.62 113.92C199.69 113.27 198.32 112.56 198.32 110.5C198.32 108.02 200.25 106.96 203.3 106.96C206 106.96 207.99 107.85 208.63 109.19H208.65Z" fill="#305789"/>
<path d="M234.29 111.25C234.36 111.55 234.46 112.07 234.46 112.52C234.46 113.83 233.52 114.23 232.4 114.23H224.54C224.66 116.46 226.7 118.02 228.63 118.02C230.14 118.02 231.51 117.25 232.13 116.11L233.84 117.18C232.75 118.82 231.19 120.08 228.56 120.08C225.19 120.08 222.39 117.2 222.39 113.34C222.39 109.67 224.92 106.94 228.56 106.94C231.59 106.94 233.54 108.7 234.29 111.25ZM224.62 112.39H232.38C232.08 110.53 230.62 108.97 228.56 108.97C226.5 108.97 224.84 110.46 224.62 112.39ZM231.41 102.35L225.95 105.85L225.38 105.11L230.41 101.14L231.4 102.35H231.41Z" fill="#305789"/>
<path d="M243.48 118.02C245.19 118.02 247.1 116.78 247.45 115.37L249.63 115.84C248.99 118.32 246.31 120.08 243.51 120.08C239.72 120.08 237.16 117.33 237.16 113.61C237.16 109.54 239.49 106.94 243.78 106.94C246.95 106.94 249.24 108.8 249.58 111.01L247.37 111.8C246.8 109.87 245.34 109.02 243.25 109.02C240.79 109.02 239.38 110.93 239.38 113.43C239.38 115.93 241.12 118.02 243.47 118.02H243.48Z" fill="#305789"/>
<path d="M253.18 119.83V101.23H255.51V108.82C256.63 107.55 257.99 106.94 259.63 106.94C262.75 106.94 265.11 109.05 265.11 112.12V119.83H262.83V112.61C262.83 110.53 261.32 109.01 259.36 109.01C257.72 109.01 255.52 110.32 255.52 111.64V119.82H253.19L253.18 119.83Z" fill="#305789"/>
<path d="M277.75 111.62V111.02C277.3 109.51 276.29 109.09 274.72 109.09C272.86 109.09 272.04 109.71 271.6 110.45L270.19 108.79C270.83 107.85 272.15 106.91 274.53 106.91C278.13 106.91 280.01 108.3 280.01 111.67V117.05C280.01 117.92 280.61 118.41 281.47 118.41L281.17 120C279.76 120 278.99 119.45 278.44 118.69C277.65 119.48 276.63 120.13 274.15 120.13C270.63 120.13 269.21 118.57 269.21 116.29C269.21 111.45 276.15 112.67 277.74 111.63L277.75 111.62ZM277.75 116.23V113.43C276.51 114.08 274.6 113.88 272.99 114.37C271.92 114.72 271.58 115.29 271.58 116.28C271.58 117.27 272.13 118.19 274.46 118.19C275.87 118.19 277.26 117.74 277.76 116.23H277.75Z" fill="#305789"/>
<path d="M284.74 119.83V107.33L285.56 107.13C286.13 107.58 286.58 108.15 286.92 108.82C287.79 107.65 289.87 106.94 291.46 106.94C294.54 106.94 297.21 108.82 297.21 112.12V119.83H294.93V112.61C294.93 110.53 293.14 109.01 291.19 109.01C289.58 109.01 287.07 110.32 287.07 111.64V119.82H284.74V119.83Z" fill="#305789"/>
<path d="M306.39 106.93C308.03 106.93 309.34 107.48 310.38 108.32C310.65 107.8 310.98 107.4 311.35 107.11L312.34 107.33C312.19 107.75 312.14 108.3 312.14 108.99V119.43C312.14 123.12 309.73 125.01 305.72 125.01C302.89 125.01 301.53 124.04 300.81 123.08L302.15 121.42C302.72 122.16 303.71 122.83 305.65 122.83C307.59 122.83 310.11 121.91 310.11 119.26V118.32C309.07 119.59 307.85 119.93 306.12 119.93C303.19 119.93 300.79 117.65 300.79 113.11C300.79 109.22 303.57 106.94 306.39 106.94V106.93ZM309.91 116.03V110.95C309.39 109.44 307.93 109.02 306.71 109.02C304.55 109.02 302.87 110.88 302.87 113.16C302.87 116.41 304.51 117.9 306.79 117.9C307.73 117.9 309.69 117.13 309.91 116.04V116.03Z" fill="#305789"/>
<path d="M327.88 111.25C327.95 111.55 328.05 112.07 328.05 112.52C328.05 113.83 327.11 114.23 325.99 114.23H318.13C318.25 116.46 320.29 118.02 322.22 118.02C323.73 118.02 325.1 117.25 325.72 116.11L327.43 117.18C326.34 118.82 324.78 120.08 322.15 120.08C318.78 120.08 315.98 117.2 315.98 113.34C315.98 109.67 318.51 106.94 322.15 106.94C325.18 106.94 327.13 108.7 327.88 111.25ZM318.21 112.39H325.97C325.67 110.53 324.21 108.97 322.15 108.97C320.09 108.97 318.43 110.46 318.21 112.39Z" fill="#305789"/>
<path d="M341.94 109.19L340.08 110.5C339.71 109.81 338.91 108.89 336.48 108.89C335.09 108.89 333.78 109.49 333.78 110.53C333.78 113.28 342.41 111.3 342.41 116.16C342.41 119.28 339.19 120.1 336.68 120.1C333.78 120.1 331.57 119.03 330.75 117.42L332.73 116.3C333.25 117.12 334.39 118.11 336.57 118.11C338.28 118.11 340.24 117.32 340.24 116.13C340.24 114.49 336.84 114.59 334.91 113.92C332.98 113.27 331.61 112.56 331.61 110.5C331.61 108.02 333.54 106.96 336.59 106.96C339.29 106.96 341.28 107.85 341.92 109.19H341.94Z" fill="#305789"/>
</svg>
