<svg width="118" height="27" viewBox="0 0 118 27" fill="none" xmlns="http://www.w3.org/2000/svg">
<path d="M112.44 18.2902C112.74 17.7602 112.89 17.2302 112.89 16.7102C112.89 16.0902 112.74 15.5002 112.48 14.9102H99.65C99.65 14.9102 99.65 14.9102 99.65 14.9202H55C55 14.9202 55 14.9202 55 14.9102H42.69C41.72 14.9102 40.93 15.6602 40.93 16.5902C40.93 17.5202 41.72 18.2702 42.68 18.2702L112.42 18.2902H112.44Z" fill="#73869F"/>
<path d="M0 8.08018L2.18 7.60018C2.91 8.22018 3.42 9.47018 3.84 10.0902C4.63 8.88018 6.4 7.43018 9.47 7.43018C12.54 7.43018 14.48 9.05018 15.21 10.5402C15.8 9.05018 18.6 7.43018 21.81 7.43018C25.82 7.43018 29 10.1202 29 15.0702V25.9502H24.41V15.6502C24.41 13.4002 22.79 11.8802 20.64 11.8802C19.43 11.8802 17.5 12.6102 16.91 13.8102V25.9402H12.32V15.6402C12.32 13.3902 10.87 11.8702 8.76 11.8702C6.96 11.8702 4.68 13.0802 4.68 14.3902V25.9302H0V8.08018Z" fill="white"/>
<path d="M41.8 21.6302C44.36 21.6302 46.6 19.4202 46.6 16.8302C46.6 14.2402 44.35 12.1002 41.8 12.1002C39.25 12.1002 37.1 14.3102 37.1 16.8302C37.1 19.3502 39.24 21.6302 41.8 21.6302ZM41.8 7.43018C47.12 7.43018 51.34 11.5802 51.34 16.8302C51.34 22.0802 47.12 26.2602 41.8 26.2602C36.48 26.2602 32.37 22.1502 32.37 16.8302C32.37 11.5102 36.41 7.43018 41.8 7.43018Z" fill="white"/>
<path d="M54.69 25.9502V8.08018L56.9 7.60018C57.63 8.19018 58.28 9.22018 58.59 10.0902C59.8 8.67018 61.35 7.43018 64.6 7.43018C68.71 7.43018 72.68 10.1902 72.68 15.0702V25.9502H67.91V15.6502C67.91 13.4702 66.04 11.8802 63.94 11.8802C62.25 11.8802 59.48 13.0902 59.48 14.4002V25.9402H54.68L54.69 25.9502Z" fill="white"/>
<path d="M80.95 14.9299H89.07C88.76 12.8199 86.93 11.7199 85.1 11.7199C83.27 11.7199 81.37 12.9599 80.95 14.9299ZM93.46 15.5499C93.46 17.9299 91.84 18.3099 89.94 18.3099H80.89C81.24 20.5599 82.93 21.8299 85.17 21.8299C87.28 21.8299 88.52 21.0699 89.38 19.9999L93.04 21.8699C91.14 25.1499 88.69 26.2599 84.96 26.2599C80.02 26.2599 76.05 22.1499 76.05 16.6599C76.05 11.1699 79.68 7.43994 84.96 7.43994C89.73 7.43994 93.46 10.3799 93.46 15.5599" fill="white"/>
<path d="M101.71 0H96.84V25.95H101.71V0Z" fill="white"/>
<path d="M117.29 16.6201C117.29 19.2301 115.17 21.3501 112.56 21.3501C109.95 21.3501 107.83 19.2301 107.83 16.6201C107.83 14.0101 109.95 11.8901 112.56 11.8901C115.17 11.8901 117.29 14.0101 117.29 16.6201Z" fill="white"/>
</svg>
