<svg width="126" height="28" viewBox="0 0 126 28" fill="none" xmlns="http://www.w3.org/2000/svg">
<path d="M119.891 19.5024C120.205 18.94 120.374 18.3775 120.374 17.815C120.374 17.1572 120.215 16.5216 119.935 15.9019H106.251C106.251 15.9019 106.258 15.9115 106.261 15.9147H58.6472C58.6472 15.9147 58.6535 15.9051 58.6567 15.9019H45.529C44.4962 15.9019 43.6573 16.7028 43.6573 17.6911C43.6573 18.6794 44.4962 19.4802 45.529 19.4802L119.891 19.5056V19.5024Z" fill="#A8D7DD"/>
<path d="M0 8.62149L2.31983 8.10668C3.09204 8.77085 3.64499 10.096 4.08671 10.7602C4.93519 9.46997 6.8133 7.92236 10.0928 7.92236C13.3724 7.92236 15.4348 9.65429 16.207 11.2369C16.833 9.65429 19.817 7.92236 23.2428 7.92236C27.517 7.92236 30.9046 10.7951 30.9046 16.064V27.6695H26.0043V16.6932C26.0043 14.3003 24.2724 12.6796 21.9875 12.6796C20.6973 12.6796 18.6349 13.4518 18.0089 14.742V27.6727H13.1086V16.6964C13.1086 14.3035 11.561 12.6828 9.31427 12.6828C7.39803 12.6828 4.96697 13.973 4.96697 15.3712V27.6759H0V8.62149Z" fill="#305789"/>
<path d="M44.5725 23.0616C47.2991 23.0616 49.692 20.7037 49.692 17.9421C49.692 15.1806 47.2991 12.8957 44.5725 12.8957C41.8459 12.8957 39.5642 15.2537 39.5642 17.9421C39.5642 20.6306 41.8491 23.0616 44.5725 23.0616ZM44.5725 7.92236C50.2449 7.92236 54.7384 12.3427 54.7384 17.9421C54.7384 23.5415 50.2449 28 44.5725 28C38.9 28 34.5146 23.6177 34.5146 17.9421C34.5146 12.2665 38.8237 7.92236 44.5725 7.92236Z" fill="#305789"/>
<path d="M58.3103 27.6663V8.62149L60.6683 8.10668C61.4405 8.73271 62.1428 9.8386 62.4733 10.7602C63.7635 9.2507 65.4191 7.92236 68.883 7.92236C73.2652 7.92236 77.5045 10.8682 77.5045 16.064V27.6663H72.4199V16.69C72.4199 14.3702 70.4306 12.6764 68.1839 12.6764C66.3789 12.6764 63.433 13.9666 63.433 15.3649V27.6695H58.3135L58.3103 27.6663Z" fill="#305789"/>
<path d="M86.3071 15.9147H94.9636C94.6331 13.6679 92.6787 12.4889 90.7275 12.4889C88.7763 12.4889 86.7488 13.8141 86.3071 15.9147ZM99.6414 16.5788C99.6414 19.1211 97.9094 19.5247 95.8852 19.5247H86.234C86.6027 21.9208 88.4077 23.2809 90.8006 23.2809C93.0473 23.2809 94.3725 22.4705 95.2941 21.3297L99.1996 23.319C97.1722 26.8178 94.5568 27.9968 90.5782 27.9968C85.3093 27.9968 81.0732 23.6146 81.0732 17.7546C81.0732 11.8947 84.9407 7.91919 90.5782 7.91919C95.6627 7.91919 99.6414 11.0494 99.6414 16.5756" fill="#305789"/>
<path d="M108.447 0H103.251V27.6663H108.447V0Z" fill="#305789"/>
<path d="M125.055 17.7197C125.055 20.5035 122.795 22.7629 120.011 22.7629C117.228 22.7629 114.968 20.5035 114.968 17.7197C114.968 14.9359 117.228 12.6764 120.011 12.6764C122.795 12.6764 125.055 14.9359 125.055 17.7197Z" fill="#305789"/>
</svg>
