<svg width="49" height="48" viewBox="0 0 49 48" fill="none" xmlns="http://www.w3.org/2000/svg">
<path d="M20.18 38.37L13.32 45.18C11.82 46.68 9.88001 47.43 7.96001 47.43C6.15001 47.43 4.37001 46.76 3.02001 45.41C0.230006 42.63 0.340006 38.01 3.25001 35.1L10.15 28.2C11.12 30.42 12.51 32.49 14.32 34.3C16.06 36.04 18.05 37.4 20.18 38.37Z" fill="#305780"/>
<path d="M42.73 5.89C34.89 -1.96 22.17 -1.96 14.32 5.89C8.28001 11.92 6.89001 20.84 10.15 28.2C11.12 30.42 12.51 32.49 14.32 34.3C16.06 36.04 18.05 37.4 20.18 38.37C27.59 41.76 36.63 40.4 42.73 34.3C50.58 26.45 50.58 13.73 42.73 5.89ZM39.52 31.09C35.25 35.36 29.09 36.62 23.7 34.87C21.44 34.14 19.32 32.88 17.53 31.09C15.74 29.3 14.39 27.03 13.67 24.68C12.04 19.35 13.32 13.31 17.53 9.1C23.6 3.04 33.46 3.04 39.52 9.1C45.58 15.16 45.58 25.02 39.52 31.09Z" fill="#A8D7DD"/>
</svg>
