<svg width="112" height="40" viewBox="0 0 112 40" fill="none" xmlns="http://www.w3.org/2000/svg">
<path d="M65.91 0C70.81 0 75.28 1.83 78.68 4.84C78.51 5.01 78.33 5.18 78.16 5.36C77.48 6.06 76.86 6.8 76.29 7.59C76.15 7.78 76.01 7.98 75.88 8.18C73.23 5.8 69.73 4.35 65.91 4.35C57.68 4.35 50.98 11.05 50.98 19.28C50.98 27.51 57.67 34.21 65.91 34.21C69.74 34.21 73.24 32.76 75.88 30.38C76.06 30.22 76.24 30.05 76.41 29.88C76.59 29.7 76.76 29.52 76.93 29.34C77.64 28.57 78.27 27.72 78.79 26.81C78.94 26.56 79.08 26.3 79.21 26.04C79.35 25.77 79.49 25.49 79.61 25.21C80.4 23.39 80.83 21.39 80.83 19.29C80.83 17.19 80.4 15.19 79.6 13.37C79.73 13.08 79.87 12.81 80.02 12.53C80.54 11.57 81.17 10.68 81.88 9.87C82.05 9.68 82.22 9.5 82.4 9.32C84.17 12.23 85.18 15.64 85.18 19.29C85.18 22.94 84.17 26.35 82.4 29.26C82.27 29.47 82.14 29.68 82 29.89C81.87 30.09 81.73 30.3 81.59 30.5C81.02 31.29 80.39 32.04 79.72 32.73C79.56 32.9 79.38 33.07 79.2 33.24C79.03 33.4 78.85 33.57 78.67 33.73C75.27 36.74 70.8 38.57 65.89 38.57C55.24 38.57 46.61 29.94 46.61 19.3C46.63 8.63 55.26 0 65.91 0Z" fill="#A8D7DD"/>
<path d="M92.52 0C103.17 0 111.8 8.63 111.8 19.28C111.8 29.93 103.17 38.55 92.52 38.55C87.62 38.55 83.15 36.72 79.75 33.71C79.92 33.54 80.1 33.37 80.27 33.2C80.95 32.5 81.57 31.76 82.14 30.97C82.28 30.78 82.42 30.58 82.56 30.38C85.21 32.75 88.7 34.2 92.53 34.2C100.76 34.2 107.46 27.5 107.46 19.27C107.46 11.04 100.77 4.34 92.53 4.34C88.7 4.34 85.21 5.79 82.56 8.17C82.38 8.33 82.2 8.5 82.02 8.68C81.85 8.85 81.67 9.03 81.5 9.22C80.79 10 80.16 10.85 79.64 11.76C79.49 12.01 79.35 12.26 79.22 12.52C79.08 12.8 78.94 13.07 78.83 13.36C78.04 15.18 77.6 17.18 77.6 19.28C77.6 21.38 78.03 23.38 78.82 25.2C78.69 25.48 78.55 25.76 78.41 26.03C77.89 26.99 77.26 27.88 76.54 28.69C76.38 28.88 76.2 29.07 76.02 29.25C74.25 26.34 73.24 22.93 73.24 19.28C73.24 15.63 74.25 12.22 76.02 9.31C76.15 9.1 76.28 8.89 76.42 8.68C76.55 8.48 76.69 8.27 76.83 8.07C77.4 7.28 78.03 6.53 78.7 5.84C78.86 5.66 79.04 5.49 79.22 5.33C79.39 5.16 79.57 5 79.76 4.84C83.15 1.83 87.62 0 92.52 0Z" fill="#2A4D80"/>
<path d="M19.28 0.51001C8.63 0.51001 0 9.14001 0 19.79C0 30.44 8.63 39.07 19.28 39.07C29.93 39.07 38.56 30.44 38.56 19.79C38.56 9.14001 29.93 0.51001 19.28 0.51001ZM20.88 28.17H17.39V15.22L15.81 15.11L15.63 13.48L19.79 11.4L20.88 11.63V28.18V28.17Z" fill="#A8D7DD"/>
</svg>
