<svg width="33" height="44" viewBox="0 0 33 44" fill="none" xmlns="http://www.w3.org/2000/svg">
<path d="M32.53 15.38C32.43 13.45 31.98 11.61 31.24 9.91C31.04 9.43 30.81 8.96 30.56 8.49C30.43 8.26 30.3 8.03 30.17 7.81C30.04 7.58 29.89 7.37 29.75 7.16C29.2 6.34 28.58 5.58 27.88 4.87C27.71 4.7 27.54 4.53 27.36 4.37C27.19 4.2 27.01 4.05 26.82 3.89C26.64 3.73 26.45 3.58 26.26 3.43C26.07 3.28 25.87 3.14 25.68 3C25.48 2.86 25.29 2.72 25.08 2.59C24.89 2.46 24.69 2.35 24.5 2.24C24.48 2.22 24.45 2.2 24.43 2.19C24.23 2.07 24.04 1.96 23.83 1.86C23.43 1.64 23.02 1.45 22.59 1.27C21.58 0.85 20.5 0.51 19.4 0.3C19.19 0.25 18.97 0.21 18.75 0.18C18.48 0.14 18.21 0.1 17.94 0.08C17.8 0.06 17.66 0.05 17.53 0.04C17.39 0.02 17.25 0.02 17.11 0.02C16.83 0 16.56 0 16.28 0C13.75 0 11.36 0.57 9.23 1.61C9.05 1.7 8.88 1.78 8.7 1.88C8.19 2.16 7.69 2.45 7.21 2.78H7.19C2.85 5.7 0 10.65 0 16.27C0 20.33 1.49 24.91 3.95 27.76L3.97 27.78C5.25 29.27 14.95 43.27 14.95 43.27C15.57 44.24 16.98 44.24 17.6 43.27C17.6 43.27 27.31 29.23 28.54 27.82L28.56 27.8C31.23 24.74 32.77 19.81 32.53 15.38ZM16.27 6.7C21.54 6.7 25.82 10.98 25.82 16.24C25.82 21.5 21.54 25.78 16.27 25.78C11 25.78 6.73 21.5 6.73 16.24C6.73 10.98 11.01 6.7 16.27 6.7Z" fill="#305780"/>
</svg>
