<svg width="70" height="42" viewBox="0 0 70 42" fill="none" xmlns="http://www.w3.org/2000/svg">
<path d="M20.71 0C25.97 0 30.78 1.97 34.43 5.2C34.24 5.39 34.06 5.57 33.87 5.76C33.14 6.51 32.47 7.3 31.86 8.15C31.71 8.36 31.56 8.57 31.41 8.79C28.57 6.23 24.81 4.68 20.7 4.68C11.86 4.68 4.67 11.87 4.67 20.72C4.67 29.56 11.86 36.75 20.7 36.75C24.81 36.75 28.57 35.19 31.41 32.64C31.6 32.46 31.79 32.28 31.98 32.1C32.17 31.91 32.36 31.72 32.53 31.52C33.29 30.69 33.96 29.78 34.53 28.8C34.69 28.53 34.84 28.26 34.98 27.98C35.13 27.69 35.28 27.39 35.41 27.08C36.26 25.13 36.72 22.98 36.72 20.72C36.72 18.46 36.25 16.31 35.4 14.36C35.54 14.05 35.69 13.76 35.85 13.46C36.41 12.43 37.08 11.48 37.85 10.61C38.03 10.41 38.22 10.21 38.41 10.02C40.31 13.14 41.39 16.81 41.39 20.73C41.39 24.65 40.3 28.31 38.41 31.44C38.27 31.67 38.13 31.9 37.98 32.12C37.84 32.34 37.69 32.56 37.54 32.77C36.92 33.62 36.25 34.42 35.53 35.17C35.35 35.36 35.17 35.54 34.97 35.72C34.79 35.9 34.6 36.07 34.4 36.24C30.75 39.48 25.94 41.44 20.68 41.44C9.27 41.41 0 32.15 0 20.71C0 9.27 9.27 0 20.71 0Z" fill="#305780"/>
<path d="M49.29 0C60.73 0 70 9.27 70 20.71C70 32.15 60.73 41.41 49.29 41.41C44.03 41.41 39.22 39.45 35.57 36.21C35.76 36.03 35.94 35.85 36.13 35.66C36.86 34.91 37.53 34.12 38.14 33.27C38.29 33.06 38.44 32.85 38.59 32.63C41.43 35.18 45.19 36.74 49.3 36.74C58.14 36.74 65.33 29.55 65.33 20.71C65.33 11.87 58.14 4.67 49.3 4.67C45.19 4.67 41.43 6.23 38.59 8.78C38.39 8.96 38.2 9.14 38.01 9.32C37.82 9.51 37.64 9.7 37.45 9.9C36.69 10.74 36.02 11.65 35.45 12.63C35.28 12.9 35.14 13.17 35 13.45C34.85 13.75 34.7 14.04 34.58 14.35C33.73 16.3 33.26 18.45 33.26 20.71C33.26 22.97 33.73 25.12 34.57 27.07C34.43 27.37 34.28 27.67 34.12 27.97C33.56 29 32.89 29.95 32.11 30.82C31.93 31.02 31.75 31.23 31.55 31.42C29.65 28.3 28.57 24.63 28.57 20.71C28.57 16.79 29.66 13.13 31.55 10C31.69 9.77 31.83 9.54 31.98 9.32C32.12 9.1 32.27 8.88 32.42 8.67C33.04 7.82 33.71 7.02 34.43 6.27C34.61 6.08 34.79 5.9 34.99 5.72C35.18 5.54 35.37 5.36 35.57 5.19C39.23 1.96 44.03 0 49.29 0Z" fill="#A2D7DD"/>
</svg>
