<svg width="299" height="203" viewBox="0 0 299 203" fill="none" xmlns="http://www.w3.org/2000/svg">
<g filter="url(#filter0_d_22_221)">
<path d="M278.81 4.53C273.8 1.57 268.05 0 262.18 0H32.82C14.72 0 0 14.72 0 32.82V195.5C0 196.25 0.34 196.97 0.93 197.44C1.38 197.81 1.93 198 2.5 198C2.67 198 2.85 197.98 3.02 197.95L134.53 170.11C138.81 169.19 142.7 168.72 146.48 168.67C147.16 168.65 147.84 168.65 148.55 168.67C152.3 168.72 156.19 169.19 160.47 170.11L291.98 197.95C292.72 198.11 293.49 197.92 294.07 197.44C294.66 196.97 295 196.25 295 195.5V32.82C295 21.24 288.79 10.39 278.81 4.53ZM5 32.82C5 17.48 17.48 5 32.82 5H262.18C267.16 5 272.03 6.33 276.27 8.83C284.74 13.81 290 23 290 32.82V179.42L161.51 152.21C156.91 151.23 152.7 150.73 148.66 150.67C147.88 150.65 147.12 150.65 146.37 150.67C142.3 150.73 138.09 151.23 133.49 152.21L5 179.41V32.82Z" fill="white"/>
</g>
<defs>
<filter id="filter0_d_22_221" x="0" y="0" width="299" height="202.006" filterUnits="userSpaceOnUse" color-interpolation-filters="sRGB">
<feFlood flood-opacity="0" result="BackgroundImageFix"/>
<feColorMatrix in="SourceAlpha" type="matrix" values="0 0 0 0 0 0 0 0 0 0 0 0 0 0 0 0 0 0 127 0" result="hardAlpha"/>
<feOffset dx="4" dy="4"/>
<feComposite in2="hardAlpha" operator="out"/>
<feColorMatrix type="matrix" values="0 0 0 0 0.494118 0 0 0 0 0.607843 0 0 0 0 0.694118 0 0 0 1 0"/>
<feBlend mode="normal" in2="BackgroundImageFix" result="effect1_dropShadow_22_221"/>
<feBlend mode="normal" in="SourceGraphic" in2="effect1_dropShadow_22_221" result="shape"/>
</filter>
</defs>
</svg>
