<svg width="299" height="228" viewBox="0 0 299 228" fill="none" xmlns="http://www.w3.org/2000/svg">
<path d="M292 58.32V208L160.49 180.16C156.41 179.29 152.26 178.73 148.09 178.67C147.36 178.65 146.64 178.65 145.91 178.67C141.74 178.73 137.59 179.29 133.51 180.16L4.5 207.47L2 208V58.32C2 41.57 15.57 28 32.32 28H261.68C267.29 28 272.54 29.52 277.04 32.18C285.99 37.44 292 47.18 292 58.32Z" fill="#B9DFE4"/>
<g filter="url(#filter0_d_303_17)">
<path d="M278.81 29.53C273.8 26.57 268.05 25 262.18 25H32.82C14.72 25 0 39.72 0 57.82V220.5C0 221.25 0.34 221.97 0.93 222.44C1.38 222.81 1.93 223 2.5 223C2.67 223 2.85 222.98 3.02 222.95L134.53 195.11C138.81 194.19 142.7 193.72 146.48 193.67C147.16 193.65 147.84 193.65 148.55 193.67C152.3 193.72 156.19 194.19 160.47 195.11L291.98 222.95C292.72 223.11 293.49 222.92 294.07 222.44C294.66 221.97 295 221.25 295 220.5V57.82C295 46.24 288.79 35.39 278.81 29.53ZM5 57.82C5 42.48 17.48 30 32.82 30H262.18C267.16 30 272.03 31.33 276.27 33.83C284.74 38.81 290 48 290 57.82V204.42L161.51 177.21C156.91 176.23 152.7 175.73 148.66 175.67C147.88 175.65 147.12 175.65 146.37 175.67C142.3 175.73 138.09 176.23 133.49 177.21L5 204.41V57.82Z" fill="white"/>
</g>
<path d="M146.61 49.22C160.202 49.22 171.22 38.2017 171.22 24.61C171.22 11.0183 160.202 0 146.61 0C133.018 0 122 11.0183 122 24.61C122 38.2017 133.018 49.22 146.61 49.22Z" fill="white"/>
<path d="M138.39 31.4599C142.85 29.3699 150.14 25.5099 150.14 20.6799C150.14 18.9099 148.37 17.5099 146.54 17.5099C145 17.5099 142.91 18.1699 142.91 19.7699C142.91 20.2599 143.25 20.8599 143.94 21.6599L140.97 23.9199C139.74 22.8899 138.94 21.3999 138.94 19.9199C138.94 15.8299 142.2 13.9399 146.6 13.9399C151.37 13.9399 154.2 16.6799 154.2 20.7699C154.2 25.9099 149.91 29.4299 146.11 31.3999H154.83L154.4 35.2899H139.05L138.39 31.4599Z" fill="#305780"/>
<defs>
<filter id="filter0_d_303_17" x="0" y="25" width="299" height="202.006" filterUnits="userSpaceOnUse" color-interpolation-filters="sRGB">
<feFlood flood-opacity="0" result="BackgroundImageFix"/>
<feColorMatrix in="SourceAlpha" type="matrix" values="0 0 0 0 0 0 0 0 0 0 0 0 0 0 0 0 0 0 127 0" result="hardAlpha"/>
<feOffset dx="4" dy="4"/>
<feComposite in2="hardAlpha" operator="out"/>
<feColorMatrix type="matrix" values="0 0 0 0 0.494118 0 0 0 0 0.607843 0 0 0 0 0.694118 0 0 0 1 0"/>
<feBlend mode="normal" in2="BackgroundImageFix" result="effect1_dropShadow_303_17"/>
<feBlend mode="normal" in="SourceGraphic" in2="effect1_dropShadow_303_17" result="shape"/>
</filter>
</defs>
</svg>
