<svg width="299" height="225" viewBox="0 0 299 225" fill="none" xmlns="http://www.w3.org/2000/svg">
<path d="M292 55.32V205L160.49 177.16C156.41 176.29 152.26 175.73 148.09 175.67C147.36 175.65 146.64 175.65 145.91 175.67C141.74 175.73 137.59 176.29 133.51 177.16L4.5 204.47L2 205V55.32C2 38.57 15.57 25 32.32 25H261.68C267.29 25 272.54 26.52 277.04 29.18C285.99 34.44 292 44.18 292 55.32Z" fill="#B9DFE4"/>
<g filter="url(#filter0_d_303_18)">
<path d="M278.81 26.53C273.8 23.57 268.05 22 262.18 22H32.82C14.72 22 0 36.72 0 54.82V217.5C0 218.25 0.34 218.97 0.93 219.44C1.38 219.81 1.93 220 2.5 220C2.67 220 2.85 219.98 3.02 219.95L134.53 192.11C138.81 191.19 142.7 190.72 146.48 190.67C147.16 190.65 147.84 190.65 148.55 190.67C152.3 190.72 156.19 191.19 160.47 192.11L291.98 219.95C292.72 220.11 293.49 219.92 294.07 219.44C294.66 218.97 295 218.25 295 217.5V54.82C295 43.24 288.79 32.39 278.81 26.53ZM5 54.82C5 39.48 17.48 27 32.82 27H262.18C267.16 27 272.03 28.33 276.27 30.83C284.74 35.81 290 45 290 54.82V201.42L161.51 174.21C156.91 173.23 152.7 172.73 148.66 172.67C147.88 172.65 147.12 172.65 146.37 172.67C142.3 172.73 138.09 173.23 133.49 174.21L5 201.41V54.82Z" fill="white"/>
</g>
<path d="M147.61 49.22C161.202 49.22 172.22 38.2017 172.22 24.61C172.22 11.0183 161.202 0 147.61 0C134.018 0 123 11.0183 123 24.61C123 38.2017 134.018 49.22 147.61 49.22Z" fill="white"/>
<path d="M140.88 17.98V14.03H154.17L154.91 16.12L150.45 21.24C153.65 21.58 156.2 23.78 156.2 27.39C156.2 32.62 151.74 35.2 147.34 35.2C143.28 35.2 139.94 33.06 139.02 30.83L142.74 28.34C143.14 30.08 145.74 31.48 147.23 31.48C149.63 31.48 151.95 29.97 151.95 27.31C151.95 25.57 150.32 24.79 148.66 24.79C147.63 24.79 146.86 25.1 145.97 25.73L143.65 23.39L148.8 17.99H140.88V17.98Z" fill="#305780"/>
<defs>
<filter id="filter0_d_303_18" x="0" y="22" width="299" height="202.006" filterUnits="userSpaceOnUse" color-interpolation-filters="sRGB">
<feFlood flood-opacity="0" result="BackgroundImageFix"/>
<feColorMatrix in="SourceAlpha" type="matrix" values="0 0 0 0 0 0 0 0 0 0 0 0 0 0 0 0 0 0 127 0" result="hardAlpha"/>
<feOffset dx="4" dy="4"/>
<feComposite in2="hardAlpha" operator="out"/>
<feColorMatrix type="matrix" values="0 0 0 0 0.494118 0 0 0 0 0.607843 0 0 0 0 0.694118 0 0 0 1 0"/>
<feBlend mode="normal" in2="BackgroundImageFix" result="effect1_dropShadow_303_18"/>
<feBlend mode="normal" in="SourceGraphic" in2="effect1_dropShadow_303_18" result="shape"/>
</filter>
</defs>
</svg>
