<svg width="11" height="11" viewBox="0 0 11 11" fill="none" xmlns="http://www.w3.org/2000/svg">
<path d="M9.79551 -5.26499e-08L6.03623 -2.16973e-07C5.60875 -2.35659e-07 5.19888 0.168476 4.89713 0.470225L0.471482 4.89587C-0.157161 5.52452 -0.157161 6.54292 0.471482 7.17156L3.82843 10.5285C4.45708 11.1572 5.47548 11.1572 6.10412 10.5285L10.5298 6.10287C10.8315 5.80112 11 5.39124 11 4.96377L11 1.207C11.0025 0.540633 10.4619 -2.35223e-08 9.79551 -5.26499e-08ZM8.99085 2.81632C8.99085 3.02973 8.90607 3.2344 8.75517 3.3853C8.60426 3.53621 8.3996 3.62098 8.18619 3.62098C7.97278 3.62098 7.76811 3.53621 7.6172 3.3853C7.4663 3.2344 7.38152 3.02973 7.38152 2.81632C7.38152 2.60291 7.4663 2.39824 7.6172 2.24734C7.76811 2.09643 7.97278 2.01166 8.18619 2.01166C8.3996 2.01166 8.60426 2.09643 8.75517 2.24734C8.90607 2.39824 8.99085 2.60291 8.99085 2.81632Z" fill="white"/>
</svg>
